<svg id="Layer_1" data-name="Layer 1" xmlns="http://www.w3.org/2000/svg" viewBox="0 0 359.74 205.19"><title>logo</title><path d="M57.25,60.72l.58,15.66q0,9.87-2.22,14.41t-8.6,8q6.18,3.48,8.5,8t2.32,13.24l-.58,19q0,7.35,2.52,9.76T71,152v34.81q-22.62,0-32.77-2.52t-14.79-6q-10.07-8.13-10.06-24.75,0-4.07,1.26-15.66t1.26-13.73q0-6-8.51-7.73V83.73q8.5-1.55,8.51-6.57L13.36,47.58q0-15.85,7.35-22.82a38.3,38.3,0,0,1,20.11-9.28A223.94,223.94,0,0,1,71,13.74v34.8q-8.9.78-11.31,2.91C58.06,52.86,57.25,56,57.25,60.72Z"/><path d="M80.07,160.88V31.34h93.38V67.88H124.92V88.76h36.93V125.3H124.92v35.58Z"/><path d="M215.6,124.72q.19,6.76,8.71,6.77,19.32,0,38.67-1.16l7.53-.58,1,28a239.32,239.32,0,0,1-51.14,5.61q-25.43,0-36.73-11.7T172.29,113.8q0-26.2,12.19-39.64t38-13.44q25.82,0,38.38,11t12.56,33.84l-1.93,19.14Zm14.51-23.59c0-3.73-.55-6.38-1.65-7.92s-3-2.32-5.7-2.32-4.58.77-5.61,2.32-1.61,4.19-1.74,7.92Z"/><path d="M292.75,140.57l-.58-15.66q0-10.05,2.22-14.5t8.6-7.92q-6.18-3.48-8.5-8t-2.32-13.24l.58-18.95q0-7.35-2.51-9.76T279,49.32V14.51q22.62,0,32.77,2.52t14.6,6.18q10.25,7.93,10.25,24.56,0,4.06-1.26,15.66t-1.26,13.73q0,6,8.51,7.73v32.68q-8.5,1.55-8.51,6.57l2.52,29.58q0,15.85-7.35,22.62a36.6,36.6,0,0,1-20.3,9.29,199.14,199.14,0,0,1-30,1.93v-34.8q8.89-.78,11.31-2.9C291.94,148.44,292.75,145.35,292.75,140.57Z"/></svg>